<svg xmlns="http://www.w3.org/2000/svg" viewBox="0 9.470000267028809 678.9299926757812 46.31999969482422" data-asc="0.9052734375" width="678.9299926757812" height="46.31999969482422"><defs/><g fill="#000000"><g transform="translate(0, 0)"><path d="M0 45.26L0 9.47L4.74 9.47L4.74 27.22L22.51 9.47L28.93 9.47L13.92 23.97L29.59 45.26L23.34 45.26L10.60 27.15L4.74 32.86L4.74 45.26L0 45.26ZM31.35 32.30Q31.35 25.10 35.35 21.63Q38.70 18.75 43.51 18.75Q48.85 18.75 52.25 22.25Q55.64 25.76 55.64 31.93Q55.64 36.94 54.14 39.81Q52.64 42.68 49.77 44.26Q46.90 45.85 43.51 45.85Q38.06 45.85 34.70 42.36Q31.35 38.87 31.35 32.30M35.86 32.30Q35.86 37.28 38.04 39.76Q40.21 42.24 43.51 42.24Q46.78 42.24 48.95 39.75Q51.12 37.26 51.12 32.15Q51.12 27.34 48.94 24.87Q46.75 22.39 43.51 22.39Q40.21 22.39 38.04 24.85Q35.86 27.32 35.86 32.30ZM60.79 45.26L60.79 19.34L64.72 19.34L64.72 22.97Q65.94 21.07 67.97 19.91Q70.00 18.75 72.58 18.75Q75.46 18.75 77.31 19.95Q79.15 21.14 79.91 23.29Q82.98 18.75 87.92 18.75Q91.77 18.75 93.85 20.89Q95.92 23.02 95.92 27.47L95.92 45.26L91.55 45.26L91.55 28.93Q91.55 26.29 91.13 25.13Q90.70 23.97 89.58 23.27Q88.45 22.56 86.94 22.56Q84.20 22.56 82.40 24.38Q80.59 26.20 80.59 30.20L80.59 45.26L76.20 45.26L76.20 28.42Q76.20 25.49 75.12 24.02Q74.05 22.56 71.61 22.56Q69.75 22.56 68.18 23.54Q66.60 24.51 65.89 26.39Q65.19 28.27 65.19 31.81L65.19 45.26L60.79 45.26ZM106.49 45.26L102.42 45.26L102.42 9.47L106.81 9.47L106.81 22.24Q109.59 18.75 113.92 18.75Q116.31 18.75 118.44 19.71Q120.58 20.68 121.96 22.42Q123.34 24.17 124.12 26.64Q124.90 29.10 124.90 31.91Q124.90 38.57 121.61 42.21Q118.31 45.85 113.70 45.85Q109.11 45.85 106.49 42.02L106.49 45.26M106.45 32.10Q106.45 36.77 107.71 38.84Q109.79 42.24 113.33 42.24Q116.21 42.24 118.31 39.73Q120.41 37.23 120.41 32.28Q120.41 27.20 118.40 24.78Q116.38 22.36 113.53 22.36Q110.64 22.36 108.54 24.87Q106.45 27.37 106.45 32.10ZM130.27 14.53L130.27 9.47L134.67 9.47L134.67 14.53L130.27 14.53M130.27 45.26L130.27 19.34L134.67 19.34L134.67 45.26L130.27 45.26ZM141.36 45.26L141.36 19.34L145.31 19.34L145.31 23.02Q148.17 18.75 153.56 18.75Q155.91 18.75 157.87 19.59Q159.84 20.43 160.82 21.80Q161.79 23.17 162.18 25.05Q162.43 26.27 162.43 29.32L162.43 45.26L158.03 45.26L158.03 29.49Q158.03 26.81 157.52 25.48Q157.01 24.15 155.70 23.35Q154.39 22.56 152.64 22.56Q149.83 22.56 147.79 24.34Q145.75 26.12 145.75 31.10L145.75 45.26L141.36 45.26ZM169.19 14.53L169.19 9.47L173.58 9.47L173.58 14.53L169.19 14.53M169.19 45.26L169.19 19.34L173.58 19.34L173.58 45.26L169.19 45.26ZM177.95 45.26L177.95 41.70L194.46 22.75Q191.65 22.90 189.50 22.90L178.93 22.90L178.93 19.34L200.12 19.34L200.12 22.24L186.08 38.70L183.37 41.70Q186.33 41.48 188.92 41.48L200.90 41.48L200.90 45.26L177.95 45.26ZM223.02 36.91L227.56 37.48Q226.49 41.46 223.58 43.65Q220.68 45.85 216.16 45.85Q210.47 45.85 207.14 42.35Q203.81 38.84 203.81 32.52Q203.81 25.98 207.18 22.36Q210.55 18.75 215.92 18.75Q221.12 18.75 224.41 22.29Q227.71 25.83 227.71 32.25Q227.71 32.64 227.69 33.42L208.35 33.42Q208.59 37.70 210.77 39.97Q212.94 42.24 216.19 42.24Q218.60 42.24 220.31 40.97Q222.02 39.70 223.02 36.91M208.59 29.81L223.07 29.81Q222.78 26.54 221.41 24.90Q219.31 22.36 215.97 22.36Q212.94 22.36 210.88 24.39Q208.81 26.42 208.59 29.81ZM246.97 45.26L246.97 9.47L251.37 9.47L251.37 22.31Q254.44 18.75 259.13 18.75Q262.01 18.75 264.14 19.89Q266.26 21.02 267.18 23.02Q268.09 25.02 268.09 28.83L268.09 45.26L263.70 45.26L263.70 28.83Q263.70 25.54 262.27 24.04Q260.84 22.53 258.23 22.53Q256.27 22.53 254.55 23.55Q252.83 24.56 252.10 26.29Q251.37 28.03 251.37 31.08L251.37 45.26L246.97 45.26ZM292.53 36.91L297.07 37.48Q296.00 41.46 293.09 43.65Q290.19 45.85 285.67 45.85Q279.98 45.85 276.65 42.35Q273.32 38.84 273.32 32.52Q273.32 25.98 276.68 22.36Q280.05 18.75 285.42 18.75Q290.63 18.75 293.92 22.29Q297.22 25.83 297.22 32.25Q297.22 32.64 297.19 33.42L277.86 33.42Q278.10 37.70 280.27 39.97Q282.45 42.24 285.69 42.24Q288.11 42.24 289.82 40.97Q291.53 39.70 292.53 36.91M278.10 29.81L292.58 29.81Q292.29 26.54 290.92 24.90Q288.82 22.36 285.47 22.36Q282.45 22.36 280.38 24.39Q278.32 26.42 278.10 29.81ZM302.54 45.26L302.54 19.34L306.49 19.34L306.49 23.27Q308.01 20.51 309.29 19.63Q310.57 18.75 312.11 18.75Q314.33 18.75 316.63 20.17L315.11 24.24Q313.50 23.29 311.89 23.29Q310.45 23.29 309.30 24.16Q308.15 25.02 307.67 26.56Q306.93 28.91 306.93 31.69L306.93 45.26L302.54 45.26ZM349.95 45.26L349.95 41.99Q347.49 45.85 342.70 45.85Q339.60 45.85 337.00 44.14Q334.40 42.43 332.97 39.37Q331.54 36.30 331.54 32.32Q331.54 28.44 332.84 25.28Q334.13 22.12 336.72 20.43Q339.31 18.75 342.50 18.75Q344.85 18.75 346.68 19.74Q348.51 20.73 349.66 22.31L349.66 9.47L354.03 9.47L354.03 45.26L349.95 45.26M336.06 32.32Q336.06 37.30 338.16 39.77Q340.26 42.24 343.12 42.24Q346.00 42.24 348.01 39.88Q350.02 37.52 350.02 32.69Q350.02 27.37 347.97 24.88Q345.92 22.39 342.92 22.39Q339.99 22.39 338.02 24.78Q336.06 27.17 336.06 32.32ZM377.86 42.07Q375.42 44.14 373.16 45.00Q370.90 45.85 368.31 45.85Q364.04 45.85 361.74 43.76Q359.45 41.67 359.45 38.43Q359.45 36.52 360.31 34.95Q361.18 33.37 362.59 32.42Q363.99 31.47 365.75 30.98Q367.04 30.64 369.65 30.32Q374.98 29.69 377.49 28.81Q377.51 27.91 377.51 27.66Q377.51 24.98 376.27 23.88Q374.58 22.39 371.26 22.39Q368.16 22.39 366.69 23.47Q365.21 24.56 364.50 27.32L360.21 26.73Q360.79 23.97 362.13 22.28Q363.48 20.58 366.02 19.67Q368.55 18.75 371.90 18.75Q375.22 18.75 377.29 19.53Q379.37 20.31 380.35 21.50Q381.32 22.68 381.71 24.49Q381.93 25.61 381.93 28.54L381.93 34.40Q381.93 40.53 382.21 42.15Q382.50 43.77 383.33 45.26L378.74 45.26Q378.05 43.90 377.86 42.07M377.49 32.25Q375.10 33.23 370.31 33.91Q367.60 34.30 366.48 34.79Q365.36 35.28 364.75 36.22Q364.14 37.16 364.14 38.31Q364.14 40.06 365.47 41.24Q366.80 42.41 369.36 42.41Q371.90 42.41 373.88 41.30Q375.85 40.19 376.78 38.26Q377.49 36.77 377.49 33.86L377.49 32.25ZM388.77 14.53L388.77 9.47L393.16 9.47L393.16 14.53L388.77 14.53M388.77 45.26L388.77 19.34L393.16 19.34L393.16 45.26L388.77 45.26ZM399.85 45.26L399.85 19.34L403.78 19.34L403.78 22.97Q405.00 21.07 407.03 19.91Q409.06 18.75 411.65 18.75Q414.53 18.75 416.37 19.95Q418.21 21.14 418.97 23.29Q422.05 18.75 426.98 18.75Q430.83 18.75 432.91 20.89Q434.99 23.02 434.99 27.47L434.99 45.26L430.62 45.26L430.62 28.93Q430.62 26.29 430.19 25.13Q429.76 23.97 428.64 23.27Q427.51 22.56 426.00 22.56Q423.27 22.56 421.46 24.38Q419.65 26.20 419.65 30.20L419.65 45.26L415.26 45.26L415.26 28.42Q415.26 25.49 414.18 24.02Q413.11 22.56 410.67 22.56Q408.81 22.56 407.24 23.54Q405.66 24.51 404.96 26.39Q404.25 28.27 404.25 31.81L404.25 45.26L399.85 45.26ZM473.14 36.91L477.69 37.48Q476.61 41.46 473.71 43.65Q470.80 45.85 466.28 45.85Q460.60 45.85 457.26 42.35Q453.93 38.84 453.93 32.52Q453.93 25.98 457.30 22.36Q460.67 18.75 466.04 18.75Q471.24 18.75 474.54 22.29Q477.83 25.83 477.83 32.25Q477.83 32.64 477.81 33.42L458.47 33.42Q458.72 37.70 460.89 39.97Q463.06 42.24 466.31 42.24Q468.73 42.24 470.43 40.97Q472.14 39.70 473.14 36.91M458.72 29.81L473.19 29.81Q472.90 26.54 471.53 24.90Q469.43 22.36 466.09 22.36Q463.06 22.36 461.00 24.39Q458.94 26.42 458.72 29.81ZM483.20 45.26L483.20 19.34L487.16 19.34L487.16 23.02Q490.01 18.75 495.41 18.75Q497.75 18.75 499.72 19.59Q501.68 20.43 502.66 21.80Q503.64 23.17 504.03 25.05Q504.27 26.27 504.27 29.32L504.27 45.26L499.88 45.26L499.88 29.49Q499.88 26.81 499.37 25.48Q498.85 24.15 497.55 23.35Q496.24 22.56 494.48 22.56Q491.67 22.56 489.64 24.34Q487.60 26.12 487.60 31.10L487.60 45.26L483.20 45.26ZM524.71 55.25L524.22 51.12Q525.66 51.51 526.73 51.51Q528.20 51.51 529.08 51.03Q529.96 50.54 530.52 49.66Q530.93 49.00 531.86 46.39Q531.98 46.02 532.25 45.31L522.41 19.34L527.15 19.34L532.54 34.35Q533.59 37.21 534.42 40.36Q535.18 37.33 536.23 34.45L541.77 19.34L546.17 19.34L536.30 45.70Q534.72 49.98 533.84 51.59Q532.67 53.76 531.15 54.77Q529.64 55.79 527.54 55.79Q526.27 55.79 524.71 55.25ZM566.82 42.07Q564.38 44.14 562.12 45.00Q559.86 45.85 557.28 45.85Q553.00 45.85 550.71 43.76Q548.41 41.67 548.41 38.43Q548.41 36.52 549.28 34.95Q550.15 33.37 551.55 32.42Q552.95 31.47 554.71 30.98Q556.01 30.64 558.62 30.32Q563.94 29.69 566.46 28.81Q566.48 27.91 566.48 27.66Q566.48 24.98 565.23 23.88Q563.55 22.39 560.23 22.39Q557.13 22.39 555.65 23.47Q554.17 24.56 553.47 27.32L549.17 26.73Q549.76 23.97 551.10 22.28Q552.44 20.58 554.98 19.67Q557.52 18.75 560.86 18.75Q564.18 18.75 566.26 19.53Q568.33 20.31 569.31 21.50Q570.29 22.68 570.68 24.49Q570.90 25.61 570.90 28.54L570.90 34.40Q570.90 40.53 571.18 42.15Q571.46 43.77 572.29 45.26L567.70 45.26Q567.02 43.90 566.82 42.07M566.46 32.25Q564.06 33.23 559.28 33.91Q556.57 34.30 555.44 34.79Q554.32 35.28 553.71 36.22Q553.10 37.16 553.10 38.31Q553.10 40.06 554.43 41.24Q555.76 42.41 558.33 42.41Q560.86 42.41 562.84 41.30Q564.82 40.19 565.75 38.26Q566.46 36.77 566.46 33.86L566.46 32.25ZM577.73 45.26L577.73 9.47L582.13 9.47L582.13 29.88L592.53 19.34L598.22 19.34L588.31 28.96L599.22 45.26L593.80 45.26L585.23 32.01L582.13 34.99L582.13 45.26L577.73 45.26ZM604.25 45.26L604.25 19.34L608.64 19.34L608.64 45.26L604.25 45.26ZM616.60 45.26L616.60 19.34L620.56 19.34L620.56 23.02Q623.41 18.75 628.81 18.75Q631.15 18.75 633.12 19.59Q635.08 20.43 636.06 21.80Q637.04 23.17 637.43 25.05Q637.67 26.27 637.67 29.32L637.67 45.26L633.28 45.26L633.28 29.49Q633.28 26.81 632.76 25.48Q632.25 24.15 630.94 23.35Q629.64 22.56 627.88 22.56Q625.07 22.56 623.03 24.34Q621.00 26.12 621.00 31.10L621.00 45.26L616.60 45.26ZM645.95 45.26L645.95 19.34L650.34 19.34L650.34 45.26L645.95 45.26ZM655.98 45.26L655.98 41.70L672.49 22.75Q669.68 22.90 667.53 22.90L656.96 22.90L656.96 19.34L678.15 19.34L678.15 22.24L664.11 38.70L661.40 41.70Q664.36 41.48 666.94 41.48L678.93 41.48L678.93 45.26L655.98 45.26Z"/></g></g></svg>